PathFileType	4	(X/Y/Z)	C:\Users\u0145647\OneDrive - KU Leuven\KU Leuven\c3d2osim\CP4\T0\Data\Processed\ViconC3D_CP4_2\CP4_T0_cmj_T1_gapFilled.trc
DataRate	CameraRate	NumFrames	NumMarkers	Units	OrigDataRate	OrigDataStartFrame	OrigNumFrames
100.000000	100.000000	7	47	mm	100.000000	345	459
Frame#	Time	C7			T10			CLAV			STRN			LSHO			RSHO			RBAK			LASI			RASI			LPSI			RPSI			LLAT			RLAT			LF1			LF2			LF3			LTHI			LKNE			LMEK			RF1			RF2			RF3			RTHI			RKNE			RMEK			LT1			LT2			LT3			LTIB			LANK			LMM			RT1			RT2			RT3			RTIB			RANK			RMM			LHEE			LSTL			LLCA			LTOE			LCM5			RHEE			RSTL			RLCA			RTOE			RCM5
		X1	Y1	Z1	X2	Y2	Z2	X3	Y3	Z3	X4	Y4	Z4	X5	Y5	Z5	X6	Y6	Z6	X7	Y7	Z7	X8	Y8	Z8	X9	Y9	Z9	X10	Y10	Z10	X11	Y11	Z11	X12	Y12	Z12	X13	Y13	Z13	X14	Y14	Z14	X15	Y15	Z15	X16	Y16	Z16	X17	Y17	Z17	X18	Y18	Z18	X19	Y19	Z19	X20	Y20	Z20	X21	Y21	Z21	X22	Y22	Z22	X23	Y23	Z23	X24	Y24	Z24	X25	Y25	Z25	X26	Y26	Z26	X27	Y27	Z27	X28	Y28	Z28	X29	Y29	Z29	X30	Y30	Z30	X31	Y31	Z31	X32	Y32	Z32	X33	Y33	Z33	X34	Y34	Z34	X35	Y35	Z35	X36	Y36	Z36	X37	Y37	Z37	X38	Y38	Z38	X39	Y39	Z39	X40	Y40	Z40	X41	Y41	Z41	X42	Y42	Z42	X43	Y43	Z43	X44	Y44	Z44	X45	Y45	Z45	X46	Y46	Z46	X47	Y47	Z47

345	3.44	-145.38	1464.3	-321.21	-108.74	1189.8	-361.81	-144.17	1359.5	-219.99	-136.11	1213.5	-191.36	64.199	1422.2	-247.58	-331.21	1396.3	-304.7	-251.2	1365.2	-382.4	-46.853	931.08	-178.4	-242.37	930.09	-232.84	-66.499	972.52	-358	-136.7	976.46	-379.02	16.158	1001.3	-225.23	-272.49	1002	-301.8	60.962	679.84	-220.83	58.562	725.24	-232.05	67.525	677.53	-254.46	117.23	608.33	-243.57	59.389	471.72	-247.73	NaN	NaN	NaN	-305.46	658.8	-322.87	-308.26	691.31	-301.19	-287.62	691.8	-360.06	-349.68	600.23	-328.16	-300.83	470.68	-293.39	NaN	NaN	NaN	96.976	316.4	-342.38	85.192	344.02	-289.13	88.024	360.68	-337.88	136.35	242.04	-302.53	103.56	82.572	-406.23	20.02	78.839	-371.25	-330.43	330.89	-348.51	-318.49	367.7	-314.89	-318.24	379.7	-365.23	-382.61	265.98	-357.06	-339	87.053	-396.28	-262.1	85.873	-354.81	49.032	62.053	-445.01	27.452	49.294	-377.56	102.29	52.912	-403.24	100.7	45.563	-274.41	143.89	35.631	-298.86	-284.44	78.247	-430.29	-270.71	50.204	-361.83	-343.03	61.209	-391.39	-362.5	45.984	-268.18	-402.45	35.826	-310.7
346	3.45	-144.74	1465.2	-319.73	-108.34	1190.5	-362.61	-143.46	1359	-219.66	-136.23	1213	-191.85	64.62	1422.1	-246.13	-330.57	1396.9	-304.04	-250.6	1366.6	-382.08	-46.898	931.4	-179.19	-242.44	930.3	-234.6	-65.871	972.32	-359.16	-136.01	976.11	-380.29	16.19	1001.3	-226.06	-271.91	1002.4	-303.82	60.866	679.87	-221.33	58.538	725.31	-232.66	67.534	677.65	-255.03	117.17	608.36	-243.91	59.187	471.79	-248.12	NaN	NaN	NaN	-305.06	658.67	-324.13	-308.01	691.19	-302.62	-286.94	691.43	-361.39	-349.21	600.09	-329.5	-300.62	470.64	-293.98	NaN	NaN	NaN	96.892	316.44	-342.67	85.08	344.15	-289.43	87.904	360.6	-338.39	136.08	241.71	-302.55	103.55	82.582	-406.28	19.982	78.832	-371.31	-330.13	330.82	-348.89	-318.28	367.68	-315.33	-317.86	379.59	-365.71	-382.38	265.92	-357.46	-338.95	86.922	-396.36	-261.93	85.788	-354.72	49.027	62.027	-445.03	27.428	49.293	-377.61	102.29	52.919	-403.24	100.65	45.589	-274.39	143.84	35.613	-298.87	-284.13	78.126	-430.24	-270.5	50.122	-361.74	-342.76	61.056	-391.51	-362.46	45.923	-268.21	-402.38	35.744	-310.82
347	3.46	-144.03	1466.1	-318.15	-107.93	1191.4	-363.48	-142.97	1358.7	-219.17	-136.27	1212.7	-192.62	64.95	1421.9	-244.41	-329.84	1397.6	-303.38	-250	1368	-381.7	-47.07	931.76	-180.02	-242.57	930.49	-236.17	-65.454	972.25	-360.31	-135.41	975.83	-381.75	16.254	1001.7	-227.22	-271.02	1002.8	-305.87	60.792	680	-222.08	58.461	725.51	-233.35	67.474	677.92	-255.73	116.97	608.46	-244.61	59.009	472.06	-248.73	NaN	NaN	NaN	-304.64	658.59	-325.42	-307.75	691.17	-304	-286.28	691.18	-362.53	-348.84	599.95	-330.84	-300.42	470.65	-294.61	NaN	NaN	NaN	96.848	316.56	-343.22	85.034	344.42	-289.95	87.761	360.72	-339.02	136.22	242.48	-303.17	103.53	82.576	-406.3	19.938	78.828	-371.38	-329.75	330.75	-349.28	-318.07	367.72	-315.79	-317.62	379.55	-366.18	-382.16	265.94	-357.81	-339.05	86.894	-396.26	-261.71	85.676	-354.67	49.009	61.992	-445.08	27.392	49.297	-377.68	102.29	52.95	-403.35	100.62	45.615	-274.4	143.79	35.605	-298.9	-283.82	77.991	-430.17	-270.36	50.061	-361.53	-342.5	60.973	-391.54	-362.4	45.896	-268.24	-402.29	35.637	-310.95
348	3.47	-143.42	1467.1	-316.54	-107.64	1192.4	-364.17	-143.45	1358.7	-218.58	-136.33	1212.4	-193.32	65.257	1421.7	-242.58	-329.21	1398.4	-302.66	-249.42	1369.5	-381.18	-47.341	932.08	-180.96	-242.68	930.68	-237.85	-65.147	972.21	-361.41	-134.95	975.64	-383.06	16.213	1001.9	-228.28	-271.07	1003	-307.47	60.625	680.43	-222.79	58.383	725.84	-234.07	67.329	678.18	-256.46	116.71	608.59	-245.51	58.802	472.39	-249.5	NaN	NaN	NaN	-304.31	658.48	-326.74	-307.54	691.13	-305.34	-285.87	691.07	-363.86	-348.47	599.78	-332.23	-300.25	470.69	-295.31	NaN	NaN	NaN	96.773	316.69	-343.75	85.05	344.73	-290.61	87.512	360.92	-339.8	136.25	242.76	-303.66	103.24	82.285	-406.12	19.945	78.891	-371.43	-329.53	330.75	-349.8	-317.92	367.8	-316.29	-317.22	379.42	-366.75	-381.93	265.94	-358.17	-338.8	86.792	-396.3	-261.5	85.678	-354.57	49.034	61.979	-445.11	27.436	49.305	-377.72	102.34	52.966	-403.39	100.61	45.576	-274.4	143.76	35.619	-298.87	-283.5	77.863	-430.1	-270.15	49.987	-361.41	-342.57	61.009	-391.5	-362.32	45.865	-268.23	-402.21	35.584	-311.01
349	3.48	-142.76	1468.1	-314.97	-107.46	1193.3	-364.67	-143.34	1358.4	-217.93	-136.53	1212	-193.88	65.474	1421.4	-240.38	-328.62	1399.3	-302.09	-248.76	1371	-380.65	-47.566	932.45	-181.93	-243.01	931.02	-239.45	-64.966	972.29	-362.58	-134.7	975.49	-384.16	16.079	1002.1	-229.23	-270.88	1003.4	-309.24	60.462	680.84	-223.51	58.241	726.22	-234.76	67.164	678.55	-257.28	116.43	609.16	-246.68	58.527	472.67	-250.35	NaN	NaN	NaN	-304.12	658.43	-327.94	-307.4	691.15	-306.65	-285.48	690.9	-365.19	-348.2	599.75	-333.51	-300.08	470.78	-296.06	NaN	NaN	NaN	96.702	316.86	-344.26	84.95	345.06	-291.25	87.37	361.09	-340.43	136.24	243	-303.91	103.6	82.605	-406.37	19.988	78.93	-371.52	-329.27	330.73	-350.29	-317.66	367.94	-316.89	-316.56	379.33	-367.42	-381.71	265.97	-358.53	-338.34	86.683	-396.4	-261.29	85.707	-354.52	49.024	61.957	-445.08	27.461	49.36	-377.75	102.39	53.014	-403.44	100.58	45.613	-274.37	143.73	35.639	-298.84	-283.17	77.756	-430.04	-269.87	50.021	-361.48	-341.93	60.789	-391.49	-362.25	45.87	-268.21	-402.11	35.529	-311.11
350	3.49	-142.04	1468.8	-313.04	-107.26	1194.3	-365.14	-143	1358.2	-217.26	-136.75	1211.8	-194.2	65.72	1421.1	-238.44	-328.09	1400.2	-301.55	-248.32	1372.6	-380.14	-47.839	932.8	-182.99	-243.37	931.25	-241.01	-64.918	972.44	-363.68	-134.58	975.61	-385.46	15.885	1002.3	-230.11	-270.8	1003.8	-310.92	60.231	681.15	-224.34	58.036	726.51	-235.42	66.993	678.96	-258.01	116.3	609.46	-247.61	58.303	472.99	-251.31	NaN	NaN	NaN	-303.97	658.52	-329.11	-307.35	691.24	-307.88	-285.33	690.87	-366.34	-348.08	599.82	-334.7	-299.97	470.95	-296.92	NaN	NaN	NaN	96.603	317.02	-344.72	84.835	345.41	-291.72	87.243	361.19	-341.02	136.11	243.14	-304.17	103.52	82.532	-406.45	19.955	78.948	-371.58	-329.15	330.76	-350.81	-317.53	367.99	-317.45	-316.67	379.4	-367.98	-381.53	266	-358.95	-338.3	86.679	-396.4	-261.12	85.681	-354.47	49.056	61.933	-445.13	27.47	49.368	-377.77	102.4	53.021	-403.39	100.53	45.606	-274.34	143.68	35.675	-298.83	-282.92	77.692	-429.99	-269.68	50.015	-361.41	-341.64	60.732	-391.38	-362.2	45.847	-268.2	-402.02	35.502	-311.14
351	3.5	-141.19	1469.7	-311.34	-107.05	1195.1	-365.49	-142.94	1358	-216.42	-136.85	1211.5	-194.64	65.952	1420.6	-236.38	-327.61	1401.1	-301.01	-247.43	1374	-379.56	-48.195	933.1	-184.07	-243.66	931.43	-242.43	-65.009	972.79	-364.79	-134.57	975.88	-386.78	15.658	1002.5	-231.04	-270.84	1004.1	-312.37	60	681.56	-225.12	57.696	726.8	-236.14	66.789	679.3	-258.77	116.07	609.84	-248.23	57.99	473.27	-252.22	NaN	NaN	NaN	-304.06	658.72	-330.29	-307.35	691.43	-309.08	-285.4	691.04	-367.58	-348.11	599.97	-335.68	-299.93	471.12	-297.88	NaN	NaN	NaN	96.507	317.19	-345.18	84.517	345.65	-292.37	87.138	361.34	-341.58	135.97	243.39	-304.31	103.48	82.499	-406.31	19.944	78.968	-371.67	-329.12	330.99	-351.52	-317.11	368.14	-318.2	-316.61	379.45	-368.73	-381.37	266.05	-359.37	-338.14	86.639	-396.43	-260.97	85.753	-354.54	49.033	61.908	-445.19	27.464	49.35	-377.8	102.39	53.037	-403.41	100.48	45.637	-274.34	143.62	35.726	-298.8	-282.71	77.622	-429.95	-269.52	50.03	-361.34	-341.86	60.886	-391.36	-362.17	45.85	-268.18	-401.91	35.469	-311.18
